<svg xmlns="http://www.w3.org/2000/svg" xmlns:xlink="http://www.w3.org/1999/xlink" width="100" zoomAndPan="magnify" viewBox="0 0 75 74.999997" height="100" preserveAspectRatio="xMidYMid meet" version="1.0"><defs><clipPath id="id1"><path d="M 22.5 22.5 L 52.5 22.5 L 52.5 52.5 L 22.5 52.5 Z M 22.5 22.5 " clip-rule="nonzero"/></clipPath></defs><g clip-path="url(#id1)"><path fill="#6b1cd0" d="M 22.5 48.632812 C 22.5 50.769531 24.230469 52.5 26.367188 52.5 L 48.632812 52.5 C 50.769531 52.5 52.5 50.769531 52.5 48.632812 L 52.5 26.367188 C 52.5 24.230469 50.769531 22.5 48.632812 22.5 L 26.367188 22.5 C 24.230469 22.5 22.5 24.230469 22.5 26.367188 Z M 22.5 48.632812 " fill-opacity="1" fill-rule="nonzero"/></g><path fill="#ffffff" d="M 34.941406 35.769531 L 34.941406 31.523438 L 38.679688 31.523438 C 39.035156 31.523438 39.378906 31.550781 39.710938 31.609375 C 40.039062 31.671875 40.332031 31.777344 40.585938 31.929688 C 40.84375 32.082031 41.046875 32.292969 41.199219 32.566406 C 41.351562 32.835938 41.425781 33.183594 41.425781 33.609375 C 41.425781 34.371094 41.199219 34.921875 40.738281 35.261719 C 40.28125 35.601562 39.699219 35.769531 38.984375 35.769531 Z M 30.945312 28.417969 L 30.945312 46.582031 L 39.75 46.582031 C 40.5625 46.582031 41.355469 46.480469 42.125 46.277344 C 42.898438 46.074219 43.585938 45.757812 44.1875 45.335938 C 44.789062 44.910156 45.269531 44.363281 45.625 43.695312 C 45.980469 43.023438 46.160156 42.230469 46.160156 41.316406 C 46.160156 40.179688 45.882812 39.207031 45.332031 38.402344 C 44.78125 37.597656 43.945312 37.035156 42.824219 36.710938 C 43.640625 36.320312 44.253906 35.820312 44.671875 35.210938 C 45.085938 34.597656 45.292969 33.835938 45.292969 32.921875 C 45.292969 32.074219 45.15625 31.359375 44.875 30.785156 C 44.59375 30.207031 44.199219 29.746094 43.691406 29.398438 C 43.183594 29.050781 42.570312 28.800781 41.859375 28.648438 C 41.148438 28.496094 40.359375 28.417969 39.496094 28.417969 Z M 34.941406 43.480469 L 34.941406 38.492188 L 39.289062 38.492188 C 40.15625 38.492188 40.851562 38.691406 41.375 39.089844 C 41.902344 39.488281 42.164062 40.152344 42.164062 41.085938 C 42.164062 41.5625 42.085938 41.953125 41.921875 42.257812 C 41.761719 42.5625 41.546875 42.804688 41.273438 42.980469 C 41.003906 43.160156 40.691406 43.289062 40.332031 43.363281 C 39.976562 43.441406 39.605469 43.480469 39.214844 43.480469 Z M 34.941406 43.480469 " fill-opacity="1" fill-rule="nonzero"/></svg>