<svg xmlns="http://www.w3.org/2000/svg" xmlns:xlink="http://www.w3.org/1999/xlink" width="100" zoomAndPan="magnify" viewBox="0 0 75 74.999997" height="100" preserveAspectRatio="xMidYMid meet" version="1.0"><defs><clipPath id="id1"><path d="M 24.074219 22.5 L 51.074219 22.5 L 51.074219 52.5 L 24.074219 52.5 Z M 24.074219 22.5 " clip-rule="nonzero"/></clipPath></defs><g clip-path="url(#id1)"><path fill="#6b1cd0" d="M 51.070312 22.5 L 24.078125 22.5 L 26.460938 49.34375 L 37.574219 52.5 L 48.691406 49.34375 Z M 51.070312 22.5 " fill-opacity="1" fill-rule="nonzero"/></g><path fill="#6b1cd0" d="M 37.574219 24.867188 L 37.574219 50.050781 L 46.46875 47.527344 L 48.453125 24.867188 Z M 37.574219 24.867188 " fill-opacity="1" fill-rule="nonzero"/><path fill="#ffffff" d="M 44.800781 28.816406 L 37.574219 28.816406 L 37.574219 31.972656 L 41.464844 31.972656 L 41.226562 35.132812 L 37.574219 35.132812 L 37.574219 38.289062 L 41.070312 38.289062 L 40.832031 41.84375 L 37.574219 42.949219 L 37.574219 46.261719 L 43.847656 44.210938 L 44.402344 35.132812 Z M 44.800781 28.816406 " fill-opacity="1" fill-rule="nonzero"/><path fill="#eeeeee" d="M 37.574219 28.816406 L 37.574219 31.972656 L 30.507812 31.972656 L 30.269531 28.816406 Z M 33.921875 35.132812 L 34.082031 38.289062 L 37.574219 38.289062 L 37.574219 35.132812 Z M 34.242188 39.867188 L 31.066406 39.867188 L 31.304688 44.210938 L 37.574219 46.261719 L 37.574219 42.949219 L 34.320312 41.84375 Z M 34.242188 39.867188 " fill-opacity="1" fill-rule="nonzero"/></svg>