<svg xmlns="http://www.w3.org/2000/svg" xmlns:xlink="http://www.w3.org/1999/xlink" width="100" zoomAndPan="magnify" viewBox="0 0 75 74.999997" height="100" preserveAspectRatio="xMidYMid meet" version="1.0"><defs><clipPath id="id1"><path d="M 27.507812 42 L 38 42 L 38 52.5 L 27.507812 52.5 Z M 27.507812 42 " clip-rule="nonzero"/></clipPath><clipPath id="id2"><path d="M 27.507812 32 L 38 32 L 38 43 L 27.507812 43 Z M 27.507812 32 " clip-rule="nonzero"/></clipPath><clipPath id="id3"><path d="M 27.507812 22.5 L 38 22.5 L 38 33 L 27.507812 33 Z M 27.507812 22.5 " clip-rule="nonzero"/></clipPath><clipPath id="id4"><path d="M 37 22.5 L 47.757812 22.5 L 47.757812 33 L 37 33 Z M 37 22.5 " clip-rule="nonzero"/></clipPath><clipPath id="id5"><path d="M 37 32 L 47.757812 32 L 47.757812 43 L 37 43 Z M 37 32 " clip-rule="nonzero"/></clipPath></defs><g clip-path="url(#id1)"><path fill="#6b1cd0" d="M 32.570312 52.484375 C 35.363281 52.484375 37.632812 50.246094 37.632812 47.488281 L 37.632812 42.496094 L 32.570312 42.496094 C 29.773438 42.496094 27.507812 44.734375 27.507812 47.488281 C 27.507812 50.246094 29.773438 52.484375 32.570312 52.484375 Z M 32.570312 52.484375 " fill-opacity="1" fill-rule="nonzero"/></g><g clip-path="url(#id2)"><path fill="#6b1cd0" d="M 27.507812 37.5 C 27.507812 34.742188 29.773438 32.503906 32.570312 32.503906 L 37.632812 32.503906 L 37.632812 42.496094 L 32.570312 42.496094 C 29.773438 42.496094 27.507812 40.257812 27.507812 37.5 Z M 27.507812 37.5 " fill-opacity="1" fill-rule="nonzero"/></g><g clip-path="url(#id3)"><path fill="#6b1cd0" d="M 27.507812 27.507812 C 27.507812 24.753906 29.773438 22.515625 32.570312 22.515625 L 37.632812 22.515625 L 37.632812 32.503906 L 32.570312 32.503906 C 29.773438 32.503906 27.507812 30.265625 27.507812 27.507812 Z M 27.507812 27.507812 " fill-opacity="1" fill-rule="nonzero"/></g><g clip-path="url(#id4)"><path fill="#6b1cd0" d="M 37.632812 22.515625 L 42.695312 22.515625 C 45.488281 22.515625 47.757812 24.753906 47.757812 27.507812 C 47.757812 30.265625 45.488281 32.503906 42.695312 32.503906 L 37.632812 32.503906 Z M 37.632812 22.515625 " fill-opacity="1" fill-rule="nonzero"/></g><g clip-path="url(#id5)"><path fill="#6b1cd0" d="M 47.757812 37.5 C 47.757812 40.257812 45.488281 42.496094 42.695312 42.496094 C 39.898438 42.496094 37.632812 40.257812 37.632812 37.5 C 37.632812 34.742188 39.898438 32.503906 42.695312 32.503906 C 45.488281 32.503906 47.757812 34.742188 47.757812 37.5 Z M 47.757812 37.5 " fill-opacity="1" fill-rule="nonzero"/></g></svg>