<svg xmlns="http://www.w3.org/2000/svg" xmlns:xlink="http://www.w3.org/1999/xlink" width="100" zoomAndPan="magnify" viewBox="0 0 75 74.999997" height="100" preserveAspectRatio="xMidYMid meet" version="1.0"><defs><clipPath id="id1"><path d="M 22.5 22.5 L 52.5 22.5 L 52.5 52.5 L 22.5 52.5 Z M 22.5 22.5 " clip-rule="nonzero"/></clipPath></defs><g clip-path="url(#id1)"><path fill="#6b1cd0" d="M 51.933594 36.164062 L 38.835938 23.066406 C 38.65625 22.886719 38.445312 22.746094 38.210938 22.648438 C 37.972656 22.550781 37.726562 22.5 37.46875 22.5 C 37.214844 22.5 36.96875 22.550781 36.730469 22.648438 C 36.492188 22.746094 36.285156 22.886719 36.105469 23.066406 L 33.386719 25.785156 L 36.835938 29.234375 C 37.636719 28.953125 38.554688 29.144531 39.195312 29.785156 C 39.507812 30.097656 39.710938 30.464844 39.808594 30.894531 C 39.90625 31.324219 39.882812 31.746094 39.742188 32.160156 L 43.066406 35.484375 C 43.871094 35.207031 44.796875 35.386719 45.441406 36.03125 C 45.65625 36.246094 45.824219 36.496094 45.9375 36.777344 C 46.054688 37.058594 46.113281 37.351562 46.113281 37.65625 C 46.113281 37.960938 46.054688 38.253906 45.941406 38.539062 C 45.824219 38.820312 45.65625 39.066406 45.441406 39.285156 C 45.226562 39.5 44.976562 39.664062 44.695312 39.78125 C 44.414062 39.898438 44.121094 39.957031 43.8125 39.957031 C 43.507812 39.957031 43.214844 39.898438 42.933594 39.78125 C 42.652344 39.664062 42.402344 39.496094 42.1875 39.28125 C 41.511719 38.605469 41.347656 37.613281 41.6875 36.78125 L 38.585938 33.679688 L 38.585938 41.839844 C 38.8125 41.953125 39.015625 42.097656 39.195312 42.277344 C 39.410156 42.492188 39.578125 42.742188 39.695312 43.023438 C 39.8125 43.304688 39.871094 43.597656 39.871094 43.902344 C 39.871094 44.207031 39.8125 44.5 39.695312 44.78125 C 39.578125 45.0625 39.410156 45.3125 39.195312 45.527344 C 38.980469 45.742188 38.730469 45.910156 38.449219 46.027344 C 38.167969 46.144531 37.875 46.199219 37.570312 46.199219 C 37.265625 46.199219 36.972656 46.144531 36.691406 46.027344 C 36.410156 45.910156 36.160156 45.742188 35.945312 45.527344 C 35.730469 45.3125 35.5625 45.0625 35.445312 44.78125 C 35.328125 44.5 35.269531 44.207031 35.269531 43.902344 C 35.269531 43.597656 35.328125 43.304688 35.445312 43.023438 C 35.5625 42.742188 35.730469 42.492188 35.945312 42.277344 C 36.167969 42.054688 36.414062 41.886719 36.699219 41.773438 L 36.699219 33.539062 C 36.421875 33.425781 36.167969 33.257812 35.945312 33.035156 C 35.613281 32.707031 35.40625 32.3125 35.3125 31.855469 C 35.222656 31.398438 35.269531 30.953125 35.449219 30.523438 L 32.046875 27.121094 L 23.066406 36.09375 C 22.882812 36.273438 22.746094 36.484375 22.644531 36.71875 C 22.546875 36.957031 22.5 37.203125 22.5 37.460938 C 22.5 37.714844 22.546875 37.964844 22.644531 38.199219 C 22.746094 38.4375 22.882812 38.644531 23.066406 38.828125 L 36.164062 51.921875 C 36.34375 52.105469 36.554688 52.246094 36.789062 52.34375 C 37.027344 52.441406 37.273438 52.488281 37.53125 52.488281 C 37.785156 52.488281 38.03125 52.441406 38.269531 52.34375 C 38.507812 52.246094 38.714844 52.105469 38.894531 51.921875 L 51.933594 38.90625 C 52.113281 38.726562 52.253906 38.515625 52.351562 38.28125 C 52.449219 38.042969 52.5 37.796875 52.5 37.539062 C 52.5 37.285156 52.449219 37.035156 52.351562 36.800781 C 52.253906 36.5625 52.113281 36.355469 51.933594 36.171875 " fill-opacity="1" fill-rule="nonzero"/></g></svg>