<svg xmlns="http://www.w3.org/2000/svg" xmlns:xlink="http://www.w3.org/1999/xlink" width="100" zoomAndPan="magnify" viewBox="0 0 75 74.999997" height="100" preserveAspectRatio="xMidYMid meet" version="1.0"><defs><clipPath id="id1"><path d="M 24.355469 22.5 L 50.605469 22.5 L 50.605469 52.5 L 24.355469 52.5 Z M 24.355469 22.5 " clip-rule="nonzero"/></clipPath></defs><g clip-path="url(#id1)"><path fill="#6b1cd0" d="M 26.738281 49.433594 L 24.347656 22.585938 L 50.613281 22.585938 L 48.21875 49.429688 L 37.460938 52.414062 Z M 26.738281 49.433594 " fill-opacity="1" fill-rule="nonzero"/></g><path fill="#6b1cd0" d="M 46.171875 47.71875 L 48.214844 24.78125 L 37.480469 24.78125 L 37.480469 50.132812 Z M 46.171875 47.71875 " fill-opacity="1" fill-rule="nonzero"/><path fill="#ebebeb" d="M 37.46875 28.074219 L 29.234375 28.074219 L 30.121094 38.03125 L 37.480469 38.03125 L 37.480469 34.738281 L 33.128906 34.738281 L 32.828125 31.367188 L 37.480469 31.367188 L 37.480469 28.074219 Z M 37.480469 43.277344 L 37.464844 43.28125 L 33.804688 42.292969 L 33.570312 39.667969 L 30.269531 39.667969 L 30.730469 44.835938 L 37.464844 46.699219 L 37.480469 46.695312 Z M 37.480469 43.277344 " fill-opacity="1" fill-rule="nonzero"/><path fill="#ffffff" d="M 37.46875 38.03125 L 41.515625 38.03125 L 41.144531 42.300781 L 37.476562 43.292969 L 37.476562 46.714844 L 44.21875 44.847656 L 45.121094 34.738281 L 37.480469 34.738281 Z M 45.625 28.957031 L 45.703125 28.074219 L 37.464844 28.074219 L 37.464844 31.367188 L 45.410156 31.367188 L 45.472656 30.625 Z M 45.625 28.957031 " fill-opacity="1" fill-rule="nonzero"/></svg>