<svg xmlns="http://www.w3.org/2000/svg" xmlns:xlink="http://www.w3.org/1999/xlink" width="100" zoomAndPan="magnify" viewBox="0 0 75 74.999997" height="100" preserveAspectRatio="xMidYMid meet" version="1.0"><defs><clipPath id="id1"><path d="M 22.5 22.5 L 52.5 22.5 L 52.5 52.5 L 22.5 52.5 Z M 22.5 22.5 " clip-rule="nonzero"/></clipPath></defs><g clip-path="url(#id1)"><path fill="#6b1cd0" d="M 22.5 22.5 L 52.5 22.5 L 52.5 52.5 L 22.5 52.5 Z M 22.5 22.5 " fill-opacity="1" fill-rule="nonzero"/></g><path fill="#eeeeee" d="M 30.386719 47.570312 L 32.683594 46.179688 C 33.125 46.964844 33.53125 47.628906 34.496094 47.628906 C 35.421875 47.628906 36.007812 47.265625 36.007812 45.859375 L 36.007812 36.273438 L 38.824219 36.273438 L 38.824219 45.898438 C 38.824219 48.816406 37.113281 50.148438 34.617188 50.148438 C 32.363281 50.148438 31.050781 48.980469 30.386719 47.570312 " fill-opacity="1" fill-rule="nonzero"/><path fill="#eeeeee" d="M 40.355469 47.265625 L 42.652344 45.9375 C 43.257812 46.925781 44.042969 47.652344 45.429688 47.652344 C 46.597656 47.652344 47.34375 47.066406 47.34375 46.261719 C 47.34375 45.292969 46.578125 44.953125 45.289062 44.386719 L 44.585938 44.085938 C 42.550781 43.21875 41.203125 42.132812 41.203125 39.835938 C 41.203125 37.722656 42.8125 36.109375 45.332031 36.109375 C 47.125 36.109375 48.414062 36.734375 49.339844 38.367188 L 47.144531 39.777344 C 46.660156 38.910156 46.136719 38.570312 45.332031 38.570312 C 44.503906 38.570312 43.980469 39.09375 43.980469 39.777344 C 43.980469 40.621094 44.503906 40.964844 45.714844 41.488281 L 46.417969 41.789062 C 48.8125 42.816406 50.164062 43.863281 50.164062 46.222656 C 50.164062 48.757812 48.171875 50.148438 45.492188 50.148438 C 42.875 50.148438 41.183594 48.898438 40.355469 47.265625 " fill-opacity="1" fill-rule="nonzero"/></svg>