<svg xmlns="http://www.w3.org/2000/svg" xmlns:xlink="http://www.w3.org/1999/xlink" width="100" zoomAndPan="magnify" viewBox="0 0 75 74.999997" height="100" preserveAspectRatio="xMidYMid meet" version="1.0"><defs><clipPath id="id1"><path d="M 23.507812 24 L 51 24 L 51 52.5 L 23.507812 52.5 Z M 23.507812 24 " clip-rule="nonzero"/></clipPath></defs><g clip-path="url(#id1)"><path fill="#000000" d="M 50.777344 41.167969 C 50.613281 40.667969 50.1875 40.320312 49.632812 40.234375 C 49.371094 40.195312 49.070312 40.214844 48.71875 40.289062 C 48.101562 40.414062 47.644531 40.464844 47.308594 40.472656 C 48.570312 38.328125 49.597656 35.878906 50.1875 33.574219 C 51.140625 29.847656 50.632812 28.152344 50.035156 27.382812 C 48.457031 25.351562 46.15625 24.257812 43.378906 24.226562 C 41.898438 24.207031 40.59375 24.503906 39.917969 24.714844 C 39.285156 24.601562 38.605469 24.539062 37.894531 24.527344 C 36.558594 24.507812 35.378906 24.800781 34.371094 25.402344 C 33.8125 25.214844 32.914062 24.945312 31.878906 24.773438 C 29.445312 24.371094 27.484375 24.683594 26.050781 25.707031 C 24.3125 26.945312 23.507812 29.09375 23.65625 32.09375 C 23.703125 33.046875 24.230469 35.949219 25.066406 38.699219 C 25.542969 40.28125 26.054688 41.59375 26.582031 42.601562 C 27.332031 44.03125 28.132812 44.875 29.03125 45.175781 C 29.535156 45.34375 30.449219 45.464844 31.414062 44.65625 C 31.535156 44.804688 31.699219 44.953125 31.914062 45.089844 C 32.191406 45.265625 32.527344 45.40625 32.863281 45.492188 C 34.070312 45.796875 35.203125 45.71875 36.167969 45.292969 C 36.171875 45.464844 36.179688 45.632812 36.183594 45.773438 C 36.1875 46.007812 36.195312 46.234375 36.203125 46.445312 C 36.261719 47.882812 36.355469 49 36.644531 49.78125 C 36.660156 49.824219 36.683594 49.890625 36.703125 49.957031 C 36.847656 50.402344 37.085938 51.140625 37.695312 51.722656 C 38.328125 52.324219 39.09375 52.507812 39.792969 52.507812 C 40.140625 52.507812 40.476562 52.460938 40.769531 52.398438 C 41.816406 52.171875 43.003906 51.828125 43.863281 50.59375 C 44.679688 49.425781 45.070312 47.667969 45.144531 44.902344 C 45.152344 44.820312 45.160156 44.75 45.171875 44.675781 C 45.175781 44.628906 45.179688 44.578125 45.1875 44.53125 L 45.378906 44.546875 L 45.429688 44.550781 C 46.492188 44.601562 47.796875 44.371094 48.597656 43.996094 C 49.230469 43.699219 51.257812 42.621094 50.777344 41.167969 " fill-opacity="1" fill-rule="nonzero"/></g><path fill="#6b1cd0" d="M 48.957031 41.449219 C 45.789062 42.109375 45.570312 41.027344 45.570312 41.027344 C 48.914062 36.023438 50.316406 29.667969 49.109375 28.117188 C 45.816406 23.875 40.113281 25.878906 40.019531 25.933594 L 39.988281 25.9375 C 39.363281 25.804688 38.660156 25.726562 37.875 25.714844 C 36.441406 25.691406 35.351562 26.09375 34.527344 26.726562 C 34.527344 26.726562 24.359375 22.503906 24.832031 32.035156 C 24.933594 34.0625 27.714844 47.382812 31.035156 43.359375 C 32.25 41.890625 33.421875 40.644531 33.421875 40.644531 C 34.003906 41.035156 34.699219 41.234375 35.429688 41.164062 L 35.488281 41.113281 C 35.46875 41.296875 35.476562 41.476562 35.511719 41.6875 C 34.65625 42.648438 34.90625 42.820312 33.195312 43.171875 C 31.46875 43.535156 32.484375 44.171875 33.148438 44.339844 C 33.953125 44.542969 35.8125 44.828125 37.070312 43.054688 L 37.019531 43.257812 C 37.355469 43.527344 37.589844 45.019531 37.550781 46.367188 C 37.511719 47.71875 37.484375 48.644531 37.75 49.367188 C 38.011719 50.09375 38.277344 51.722656 40.523438 51.234375 C 42.402344 50.832031 43.375 49.78125 43.511719 48.023438 C 43.605469 46.78125 43.824219 46.964844 43.835938 45.847656 L 44.011719 45.320312 C 44.210938 43.632812 44.042969 43.085938 45.199219 43.339844 L 45.480469 43.363281 C 46.332031 43.402344 47.449219 43.226562 48.101562 42.921875 C 49.511719 42.261719 50.34375 41.160156 48.957031 41.449219 " fill-opacity="1" fill-rule="nonzero"/><path fill="#ebebeb" d="M 35.121094 32.941406 C 34.835938 32.902344 34.578125 32.941406 34.449219 33.039062 C 34.375 33.097656 34.351562 33.160156 34.34375 33.207031 C 34.328125 33.324219 34.410156 33.457031 34.460938 33.523438 C 34.605469 33.714844 34.816406 33.847656 35.023438 33.875 C 35.050781 33.878906 35.082031 33.882812 35.109375 33.882812 C 35.457031 33.882812 35.773438 33.609375 35.800781 33.410156 C 35.835938 33.160156 35.472656 32.992188 35.121094 32.941406 " fill-opacity="1" fill-rule="nonzero"/><path fill="#ebebeb" d="M 44.582031 32.949219 C 44.554688 32.753906 44.210938 32.699219 43.878906 32.746094 C 43.550781 32.789062 43.230469 32.941406 43.257812 33.136719 C 43.277344 33.289062 43.554688 33.550781 43.878906 33.550781 C 43.90625 33.550781 43.933594 33.550781 43.960938 33.546875 C 44.179688 33.515625 44.339844 33.378906 44.414062 33.296875 C 44.527344 33.175781 44.59375 33.039062 44.582031 32.949219 " fill-opacity="1" fill-rule="nonzero"/><path fill="#ebebeb" d="M 50.011719 41.375 C 49.890625 41.007812 49.5 40.886719 48.855469 41.023438 C 46.9375 41.421875 46.25 41.144531 46.023438 40.976562 C 47.515625 38.6875 48.742188 35.921875 49.402344 33.335938 C 49.71875 32.113281 49.890625 30.976562 49.90625 30.050781 C 49.921875 29.035156 49.75 28.289062 49.394531 27.832031 C 47.964844 25.992188 45.871094 25.003906 43.332031 24.976562 C 41.589844 24.957031 40.113281 25.410156 39.828125 25.535156 C 39.230469 25.382812 38.570312 25.292969 37.859375 25.28125 C 36.546875 25.257812 35.417969 25.574219 34.480469 26.21875 C 34.074219 26.066406 33.019531 25.703125 31.734375 25.492188 C 29.511719 25.132812 27.742188 25.40625 26.480469 26.304688 C 24.976562 27.382812 24.28125 29.300781 24.417969 32.015625 C 24.460938 32.929688 24.976562 35.738281 25.792969 38.429688 C 26.863281 41.96875 28.03125 43.972656 29.257812 44.386719 C 29.398438 44.433594 29.566406 44.46875 29.75 44.46875 C 30.195312 44.46875 30.742188 44.265625 31.316406 43.574219 C 32.261719 42.421875 33.148438 41.460938 33.472656 41.109375 C 33.957031 41.371094 34.484375 41.515625 35.027344 41.53125 C 35.027344 41.546875 35.027344 41.558594 35.03125 41.574219 C 34.921875 41.703125 34.832031 41.816406 34.757812 41.914062 C 34.382812 42.394531 34.304688 42.496094 33.09375 42.746094 C 32.75 42.816406 31.839844 43.007812 31.824219 43.652344 C 31.8125 44.355469 32.90625 44.652344 33.027344 44.683594 C 33.464844 44.792969 33.882812 44.847656 34.28125 44.847656 C 35.25 44.847656 36.105469 44.527344 36.785156 43.90625 C 36.765625 46.417969 36.871094 48.890625 37.167969 49.644531 C 37.414062 50.265625 38.011719 51.773438 39.902344 51.773438 C 40.179688 51.773438 40.484375 51.738281 40.820312 51.667969 C 42.796875 51.238281 43.652344 50.363281 43.984375 48.421875 C 44.160156 47.386719 44.464844 44.914062 44.609375 43.585938 C 44.910156 43.679688 45.300781 43.722656 45.722656 43.722656 C 46.597656 43.722656 47.609375 43.535156 48.246094 43.238281 C 48.957031 42.90625 50.246094 42.085938 50.011719 41.375 Z M 45.3125 32.40625 C 45.304688 32.800781 45.25 33.15625 45.195312 33.527344 C 45.132812 33.925781 45.070312 34.339844 45.054688 34.839844 C 45.039062 35.328125 45.101562 35.835938 45.160156 36.324219 C 45.277344 37.316406 45.398438 38.335938 44.929688 39.339844 C 44.855469 39.210938 44.785156 39.066406 44.71875 38.910156 C 44.660156 38.765625 44.535156 38.539062 44.359375 38.222656 C 43.679688 36.988281 42.082031 34.101562 42.898438 32.925781 C 43.140625 32.574219 43.761719 32.214844 45.3125 32.40625 Z M 43.429688 25.773438 C 45.707031 25.820312 47.503906 26.679688 48.777344 28.320312 C 49.753906 29.578125 48.675781 35.300781 45.5625 40.238281 C 45.535156 40.199219 45.503906 40.160156 45.46875 40.117188 C 45.457031 40.101562 45.445312 40.085938 45.429688 40.070312 C 46.234375 38.730469 46.078125 37.40625 45.9375 36.230469 C 45.878906 35.746094 45.824219 35.292969 45.839844 34.863281 C 45.855469 34.410156 45.914062 34.023438 45.96875 33.648438 C 46.042969 33.183594 46.113281 32.703125 46.09375 32.140625 C 46.109375 32.078125 46.113281 32.011719 46.105469 31.925781 C 46.054688 31.386719 45.441406 29.761719 44.191406 28.296875 C 43.507812 27.492188 42.507812 26.59375 41.148438 25.988281 C 41.734375 25.867188 42.535156 25.75 43.429688 25.769531 Z M 30.710938 43.066406 C 30.082031 43.828125 29.648438 43.683594 29.503906 43.636719 C 28.574219 43.320312 27.496094 41.339844 26.542969 38.195312 C 25.71875 35.476562 25.238281 32.742188 25.199219 31.976562 C 25.082031 29.550781 25.664062 27.859375 26.933594 26.953125 C 29 25.476562 32.402344 26.359375 33.765625 26.808594 C 33.746094 26.828125 33.726562 26.847656 33.707031 26.867188 C 31.464844 29.148438 31.519531 33.046875 31.523438 33.285156 C 31.523438 33.375 31.53125 33.507812 31.542969 33.6875 C 31.582031 34.339844 31.652344 35.5625 31.460938 36.945312 C 31.285156 38.226562 31.675781 39.484375 32.539062 40.390625 C 32.628906 40.488281 32.722656 40.574219 32.816406 40.65625 C 32.433594 41.074219 31.597656 41.988281 30.710938 43.066406 Z M 33.105469 39.84375 C 32.410156 39.113281 32.09375 38.097656 32.238281 37.054688 C 32.441406 35.59375 32.367188 34.320312 32.328125 33.640625 C 32.320312 33.542969 32.316406 33.460938 32.3125 33.394531 C 32.640625 33.101562 34.15625 32.28125 35.238281 32.53125 C 35.734375 32.644531 36.035156 32.984375 36.160156 33.566406 C 36.808594 36.585938 36.246094 37.84375 35.792969 38.855469 C 35.699219 39.0625 35.613281 39.261719 35.539062 39.464844 L 35.480469 39.621094 C 35.332031 40.019531 35.195312 40.390625 35.109375 40.742188 C 34.371094 40.738281 33.652344 40.421875 33.105469 39.84375 Z M 33.21875 43.917969 C 33.003906 43.863281 32.808594 43.765625 32.695312 43.6875 C 32.789062 43.644531 32.960938 43.582031 33.253906 43.519531 C 34.675781 43.226562 34.894531 43.019531 35.371094 42.40625 C 35.484375 42.265625 35.605469 42.105469 35.78125 41.910156 C 36.039062 41.621094 36.15625 41.667969 36.367188 41.757812 C 36.539062 41.832031 36.710938 42.046875 36.777344 42.289062 C 36.808594 42.402344 36.84375 42.617188 36.726562 42.785156 C 35.726562 44.199219 34.265625 44.179688 33.21875 43.917969 Z M 40.65625 50.894531 C 38.917969 51.269531 38.300781 50.375 37.898438 49.351562 C 37.636719 48.691406 37.507812 45.714844 37.597656 42.429688 C 37.597656 42.386719 37.59375 42.34375 37.582031 42.304688 C 37.570312 42.226562 37.554688 42.148438 37.53125 42.070312 C 37.394531 41.59375 37.066406 41.195312 36.667969 41.027344 C 36.511719 40.960938 36.222656 40.839844 35.875 40.929688 C 35.949219 40.621094 36.078125 40.273438 36.214844 39.898438 L 36.273438 39.738281 C 36.339844 39.5625 36.421875 39.375 36.511719 39.179688 C 36.984375 38.121094 37.628906 36.671875 36.925781 33.398438 C 36.664062 32.175781 35.785156 31.574219 34.457031 31.714844 C 33.65625 31.796875 32.925781 32.121094 32.5625 32.308594 C 32.484375 32.347656 32.414062 32.386719 32.34375 32.425781 C 32.449219 31.1875 32.832031 28.878906 34.269531 27.421875 C 35.171875 26.5 36.375 26.046875 37.84375 26.070312 C 40.738281 26.117188 42.589844 27.613281 43.636719 28.863281 C 44.539062 29.9375 45.027344 31.019531 45.222656 31.601562 C 43.757812 31.453125 42.761719 31.742188 42.253906 32.472656 C 41.15625 34.054688 42.855469 37.128906 43.671875 38.605469 C 43.824219 38.878906 43.953125 39.113281 43.996094 39.210938 C 44.257812 39.863281 44.605469 40.296875 44.855469 40.613281 C 44.933594 40.710938 45.007812 40.804688 45.066406 40.886719 C 44.621094 41.015625 43.824219 41.3125 43.894531 42.804688 C 43.835938 43.550781 43.421875 47.050781 43.210938 48.289062 C 42.929688 49.921875 42.332031 50.53125 40.65625 50.894531 Z M 47.914062 42.519531 C 47.460938 42.734375 46.699219 42.894531 45.976562 42.925781 C 45.179688 42.964844 44.777344 42.835938 44.679688 42.757812 C 44.636719 41.832031 44.976562 41.734375 45.339844 41.628906 C 45.398438 41.613281 45.453125 41.597656 45.507812 41.582031 C 45.539062 41.605469 45.578125 41.632812 45.617188 41.660156 C 46.257812 42.085938 47.402344 42.132812 49.011719 41.796875 C 49.019531 41.796875 49.027344 41.796875 49.03125 41.792969 C 48.8125 42 48.441406 42.273438 47.914062 42.519531 Z M 47.914062 42.519531 " fill-opacity="1" fill-rule="nonzero"/></svg>