<svg xmlns="http://www.w3.org/2000/svg" xmlns:xlink="http://www.w3.org/1999/xlink" width="100" zoomAndPan="magnify" viewBox="0 0 75 74.999997" height="100" preserveAspectRatio="xMidYMid meet" version="1.0"><defs><clipPath id="id1"><path d="M 22.5 22.5 L 52.5 22.5 L 52.5 52.5 L 22.5 52.5 Z M 22.5 22.5 " clip-rule="nonzero"/></clipPath></defs><g clip-path="url(#id1)"><path fill="#6b1cd0" d="M 37.492188 22.523438 C 45.78125 22.523438 52.5 29.242188 52.5 37.53125 C 52.5 45.816406 45.78125 52.535156 37.492188 52.535156 C 29.207031 52.535156 22.488281 45.816406 22.488281 37.53125 C 22.488281 29.242188 29.207031 22.523438 37.492188 22.523438 Z M 37.492188 22.523438 " fill-opacity="1" fill-rule="evenodd"/></g><path fill="#ffffff" d="M 46.90625 28.945312 C 46.226562 26.28125 41.808594 25.40625 37.625 26.890625 C 35.136719 27.773438 32.441406 29.164062 30.503906 30.976562 C 28.203125 33.128906 27.835938 35.003906 27.984375 35.789062 C 28.519531 38.554688 32.308594 40.359375 33.867188 41.703125 L 33.867188 41.710938 C 33.40625 41.9375 30.046875 43.636719 29.257812 45.375 C 28.429688 47.210938 29.390625 48.527344 30.027344 48.707031 C 32 49.253906 34.027344 48.265625 35.113281 46.644531 C 36.164062 45.078125 36.078125 43.054688 35.621094 42.046875 C 36.25 41.882812 36.984375 41.808594 37.917969 41.914062 C 40.550781 42.222656 41.066406 43.867188 40.96875 44.554688 C 40.871094 45.242188 40.316406 45.621094 40.132812 45.734375 C 39.949219 45.851562 39.890625 45.890625 39.90625 45.972656 C 39.929688 46.097656 40.015625 46.09375 40.171875 46.066406 C 40.390625 46.03125 41.554688 45.507812 41.605469 44.238281 C 41.667969 42.625 40.125 40.820312 37.386719 40.867188 C 36.261719 40.886719 35.554688 40.996094 35.042969 41.1875 C 35.003906 41.144531 34.964844 41.101562 34.925781 41.058594 C 33.234375 39.253906 30.109375 37.976562 30.242188 35.550781 C 30.289062 34.667969 30.59375 32.347656 36.246094 29.53125 C 40.878906 27.222656 44.585938 27.859375 45.226562 29.265625 C 46.140625 31.277344 43.242188 35.011719 38.433594 35.550781 C 36.601562 35.757812 35.636719 35.046875 35.398438 34.78125 C 35.144531 34.503906 35.109375 34.492188 35.015625 34.542969 C 34.859375 34.628906 34.957031 34.875 35.015625 35.019531 C 35.15625 35.394531 35.746094 36.058594 36.75 36.386719 C 37.632812 36.675781 39.785156 36.835938 42.386719 35.832031 C 45.300781 34.703125 47.574219 31.566406 46.90625 28.945312 Z M 34.511719 42.527344 C 34.730469 43.335938 34.707031 44.089844 34.480469 44.769531 C 34.457031 44.847656 34.429688 44.921875 34.398438 44.996094 C 34.367188 45.070312 34.335938 45.144531 34.300781 45.214844 C 34.128906 45.578125 33.894531 45.914062 33.609375 46.226562 C 32.734375 47.175781 31.519531 47.535156 30.996094 47.234375 C 30.433594 46.90625 30.714844 45.566406 31.726562 44.496094 C 32.8125 43.347656 34.378906 42.609375 34.378906 42.609375 L 34.375 42.605469 C 34.421875 42.578125 34.464844 42.554688 34.511719 42.527344 Z M 34.511719 42.527344 " fill-opacity="1" fill-rule="nonzero"/></svg>