<svg xmlns="http://www.w3.org/2000/svg" xmlns:xlink="http://www.w3.org/1999/xlink" width="100" zoomAndPan="magnify" viewBox="0 0 75 74.999997" height="100" preserveAspectRatio="xMidYMid meet" version="1.0"><defs><clipPath id="id1"><path d="M 22.5 29 L 52.5 29 L 52.5 46 L 22.5 46 Z M 22.5 29 " clip-rule="nonzero"/></clipPath></defs><g clip-path="url(#id1)"><path fill="#6b1cd0" d="M 22.445312 44.078125 L 23.429688 44.078125 L 23.429688 40.144531 L 24.96875 43.574219 C 25.144531 43.988281 25.394531 44.140625 25.878906 44.140625 C 26.363281 44.140625 26.597656 43.988281 26.777344 43.574219 L 28.308594 40.144531 L 28.308594 44.078125 L 29.304688 44.078125 L 29.304688 40.144531 C 29.304688 39.765625 29.152344 39.582031 28.832031 39.480469 C 28.082031 39.25 27.582031 39.449219 27.355469 39.960938 L 25.847656 43.351562 L 24.390625 39.960938 C 24.171875 39.449219 23.664062 39.25 22.90625 39.480469 C 22.59375 39.582031 22.441406 39.761719 22.441406 40.144531 L 22.441406 44.078125 Z M 30.125 40.878906 L 31.117188 40.878906 L 31.117188 43.039062 C 31.109375 43.160156 31.15625 43.4375 31.695312 43.445312 C 31.972656 43.453125 33.832031 43.445312 33.847656 43.445312 L 33.847656 40.863281 L 34.839844 40.863281 L 34.839844 44.398438 C 34.839844 45.269531 33.769531 45.460938 33.269531 45.46875 L 30.148438 45.46875 L 30.148438 44.804688 L 33.277344 44.804688 C 33.914062 44.734375 33.839844 44.414062 33.839844 44.308594 L 33.839844 44.046875 L 31.738281 44.046875 C 30.761719 44.039062 30.132812 43.605469 30.125 43.109375 Z M 51.421875 38.375 C 50.816406 38.359375 50.347656 38.417969 49.953125 38.585938 C 49.839844 38.632812 49.65625 38.632812 49.640625 38.777344 C 49.703125 38.839844 49.710938 38.9375 49.761719 39.023438 C 49.855469 39.175781 50.011719 39.382812 50.15625 39.488281 C 50.316406 39.609375 50.476562 39.734375 50.640625 39.839844 C 50.9375 40.023438 51.269531 40.128906 51.558594 40.3125 C 51.726562 40.421875 51.890625 40.558594 52.058594 40.671875 C 52.144531 40.734375 52.195312 40.832031 52.300781 40.871094 L 52.300781 40.847656 C 52.25 40.78125 52.234375 40.679688 52.179688 40.605469 C 52.105469 40.527344 52.027344 40.457031 51.953125 40.382812 C 51.734375 40.085938 51.460938 39.824219 51.164062 39.609375 C 50.921875 39.441406 50.390625 39.214844 50.292969 38.929688 L 50.277344 38.914062 C 50.445312 38.902344 50.640625 38.839844 50.800781 38.792969 C 51.058594 38.726562 51.292969 38.738281 51.558594 38.671875 C 51.679688 38.640625 51.800781 38.601562 51.921875 38.566406 L 51.921875 38.496094 C 51.785156 38.359375 51.6875 38.175781 51.542969 38.046875 C 51.15625 37.710938 50.734375 37.382812 50.292969 37.105469 C 50.058594 36.953125 49.753906 36.855469 49.503906 36.722656 C 49.414062 36.679688 49.261719 36.65625 49.210938 36.578125 C 49.074219 36.410156 48.996094 36.191406 48.898438 35.992188 C 48.679688 35.570312 48.464844 35.105469 48.277344 34.664062 C 48.140625 34.363281 48.058594 34.066406 47.890625 33.792969 C 47.109375 32.492188 46.261719 31.707031 44.957031 30.933594 C 44.675781 30.773438 44.34375 30.707031 43.988281 30.621094 L 43.421875 30.589844 C 43.296875 30.539062 43.175781 30.394531 43.070312 30.324219 C 42.640625 30.050781 41.523438 29.453125 41.207031 30.238281 C 41 30.738281 41.507812 31.226562 41.683594 31.476562 C 41.8125 31.652344 41.976562 31.851562 42.070312 32.050781 C 42.121094 32.179688 42.136719 32.316406 42.191406 32.453125 C 42.3125 32.789062 42.425781 33.164062 42.585938 33.480469 C 42.667969 33.640625 42.757812 33.808594 42.863281 33.953125 C 42.925781 34.035156 43.03125 34.074219 43.054688 34.210938 C 42.949219 34.363281 42.941406 34.59375 42.878906 34.785156 C 42.605469 35.648438 42.714844 36.71875 43.097656 37.351562 C 43.222656 37.542969 43.507812 37.960938 43.894531 37.800781 C 44.238281 37.664062 44.160156 37.226562 44.257812 36.847656 C 44.28125 36.753906 44.265625 36.695312 44.3125 36.632812 L 44.3125 36.648438 L 44.621094 37.28125 C 44.859375 37.65625 45.265625 38.046875 45.609375 38.304688 C 45.789062 38.441406 45.933594 38.679688 46.160156 38.761719 L 46.160156 38.742188 L 46.148438 38.742188 C 46.101562 38.671875 46.03125 38.640625 45.972656 38.585938 C 45.835938 38.449219 45.683594 38.28125 45.578125 38.128906 C 45.257812 37.703125 44.980469 37.226562 44.730469 36.738281 C 44.609375 36.503906 44.5 36.242188 44.402344 36.007812 C 44.359375 35.914062 44.359375 35.777344 44.28125 35.730469 C 44.167969 35.898438 44 36.046875 43.917969 36.25 C 43.773438 36.578125 43.757812 36.984375 43.707031 37.402344 C 43.675781 37.410156 43.6875 37.402344 43.675781 37.417969 C 43.433594 37.359375 43.347656 37.105469 43.257812 36.894531 C 43.03125 36.351562 42.992188 35.480469 43.191406 34.855469 C 43.242188 34.691406 43.472656 34.1875 43.378906 34.035156 C 43.335938 33.890625 43.183594 33.808594 43.097656 33.691406 C 43 33.546875 42.894531 33.363281 42.828125 33.203125 C 42.644531 32.777344 42.554688 32.304688 42.355469 31.875 C 42.265625 31.675781 42.105469 31.46875 41.976562 31.285156 C 41.832031 31.082031 41.675781 30.9375 41.5625 30.691406 C 41.523438 30.609375 41.46875 30.46875 41.53125 30.378906 C 41.546875 30.316406 41.574219 30.292969 41.636719 30.277344 C 41.734375 30.195312 42.015625 30.300781 42.113281 30.347656 C 42.394531 30.460938 42.628906 30.570312 42.863281 30.730469 C 42.96875 30.804688 43.085938 30.949219 43.222656 30.988281 L 43.378906 30.988281 C 43.621094 31.042969 43.894531 31.003906 44.121094 31.074219 C 44.523438 31.203125 44.886719 31.394531 45.214844 31.601562 C 46.207031 32.234375 47.027344 33.136719 47.578125 34.210938 C 47.671875 34.386719 47.707031 34.546875 47.792969 34.730469 C 47.949219 35.105469 48.148438 35.488281 48.308594 35.855469 C 48.464844 36.214844 48.617188 36.578125 48.84375 36.878906 C 48.957031 37.039062 49.414062 37.121094 49.617188 37.207031 C 49.769531 37.273438 50.003906 37.335938 50.140625 37.421875 C 50.398438 37.582031 50.65625 37.765625 50.898438 37.9375 C 51.019531 38.03125 51.398438 38.222656 51.421875 38.375 Z M 43.691406 31.738281 C 43.585938 31.734375 43.484375 31.75 43.382812 31.773438 L 43.382812 31.789062 L 43.398438 31.789062 C 43.457031 31.914062 43.5625 31.996094 43.640625 32.105469 L 43.8125 32.46875 L 43.828125 32.453125 C 43.933594 32.378906 43.988281 32.257812 43.988281 32.074219 C 43.941406 32.019531 43.933594 31.964844 43.898438 31.914062 C 43.851562 31.835938 43.753906 31.796875 43.691406 31.738281 Z M 43.691406 31.738281 " fill-opacity="1" fill-rule="evenodd"/></g><path fill="#6b1cd0" d="M 35.597656 44.078125 L 38.445312 44.078125 C 38.78125 44.078125 39.097656 44.011719 39.355469 43.886719 C 39.789062 43.6875 39.992188 43.421875 39.992188 43.070312 L 39.992188 42.335938 C 39.992188 42.054688 39.757812 41.789062 39.289062 41.605469 C 39.046875 41.511719 38.742188 41.460938 38.445312 41.460938 L 37.25 41.460938 C 36.847656 41.460938 36.65625 41.335938 36.605469 41.070312 C 36.597656 41.039062 36.597656 41.007812 36.597656 40.976562 L 36.597656 40.527344 C 36.597656 40.503906 36.597656 40.472656 36.605469 40.445312 C 36.65625 40.238281 36.761719 40.183594 37.113281 40.144531 L 40.03125 40.144531 L 40.03125 39.480469 L 37.257812 39.480469 C 36.855469 39.480469 36.644531 39.503906 36.453125 39.566406 C 35.871094 39.75 35.613281 40.039062 35.613281 40.550781 L 35.613281 41.132812 C 35.613281 41.582031 36.113281 41.964844 36.960938 42.054688 C 37.054688 42.0625 37.152344 42.0625 37.25 42.0625 L 38.273438 42.0625 C 38.3125 42.0625 38.347656 42.0625 38.378906 42.070312 C 38.691406 42.101562 38.828125 42.15625 38.917969 42.269531 C 38.976562 42.328125 38.992188 42.382812 38.992188 42.453125 L 38.992188 43.03125 C 38.992188 43.101562 38.949219 43.191406 38.855469 43.269531 C 38.765625 43.34375 38.621094 43.398438 38.433594 43.40625 C 38.394531 43.40625 38.371094 43.414062 38.332031 43.414062 L 35.597656 43.414062 Z M 46.164062 42.925781 C 46.164062 43.605469 46.671875 43.988281 47.6875 44.0625 C 47.785156 44.070312 47.875 44.078125 47.972656 44.078125 L 50.550781 44.078125 L 50.550781 43.414062 L 47.953125 43.414062 C 47.375 43.414062 47.15625 43.269531 47.15625 42.917969 L 47.15625 39.480469 L 46.160156 39.480469 L 46.160156 42.925781 Z M 40.621094 42.957031 L 40.621094 40.589844 C 40.621094 39.984375 41.046875 39.617188 41.871094 39.503906 C 41.964844 39.496094 42.054688 39.488281 42.136719 39.488281 L 44.015625 39.488281 C 44.117188 39.488281 44.199219 39.496094 44.296875 39.503906 C 45.125 39.617188 45.539062 39.984375 45.539062 40.589844 L 45.539062 42.957031 C 45.539062 43.445312 45.367188 43.703125 44.957031 43.878906 L 45.925781 44.765625 L 44.78125 44.765625 L 43.996094 44.046875 L 43.199219 44.09375 L 42.136719 44.09375 C 41.941406 44.09375 41.75 44.066406 41.5625 44.019531 C 40.933594 43.839844 40.621094 43.507812 40.621094 42.957031 Z M 41.691406 42.902344 C 41.691406 42.933594 41.707031 42.964844 41.714844 43.003906 C 41.765625 43.277344 42.023438 43.429688 42.417969 43.429688 L 43.3125 43.429688 L 42.492188 42.679688 L 43.636719 42.679688 L 44.359375 43.339844 C 44.496094 43.261719 44.578125 43.15625 44.609375 43.015625 C 44.617188 42.988281 44.617188 42.949219 44.617188 42.917969 L 44.617188 40.648438 C 44.617188 40.617188 44.617188 40.589844 44.609375 40.558594 C 44.554688 40.296875 44.296875 40.152344 43.910156 40.152344 L 42.417969 40.152344 C 41.976562 40.152344 41.691406 40.34375 41.691406 40.648438 Z M 41.691406 42.902344 " fill-opacity="1" fill-rule="evenodd"/></svg>