<svg xmlns="http://www.w3.org/2000/svg" xmlns:xlink="http://www.w3.org/1999/xlink" width="100" zoomAndPan="magnify" viewBox="0 0 75 74.999997" height="100" preserveAspectRatio="xMidYMid meet" version="1.0"><defs><clipPath id="id1"><path d="M 22.5 22.5 L 52.5 22.5 L 52.5 52.5 L 22.5 52.5 Z M 22.5 22.5 " clip-rule="nonzero"/></clipPath></defs><g clip-path="url(#id1)"><path fill="#6b1cd0" d="M 22.5 52.5 L 52.5 52.5 L 52.5 22.5 L 22.5 22.5 Z M 22.5 52.5 " fill-opacity="1" fill-rule="nonzero"/></g><path fill="#ffffff" d="M 29.132812 37.597656 L 29.125 38.828125 L 33.027344 38.828125 L 33.027344 49.921875 L 35.789062 49.921875 L 35.789062 38.828125 L 39.695312 38.828125 L 39.695312 37.621094 C 39.695312 36.957031 39.679688 36.398438 39.660156 36.382812 C 39.648438 36.367188 37.269531 36.355469 34.390625 36.359375 L 29.148438 36.375 Z M 29.132812 37.597656 " fill-opacity="1" fill-rule="nonzero"/><path fill="#ffffff" d="M 46.707031 36.339844 C 47.46875 36.53125 48.050781 36.871094 48.582031 37.421875 C 48.859375 37.714844 49.269531 38.253906 49.300781 38.382812 C 49.3125 38.421875 48.007812 39.296875 47.214844 39.789062 C 47.1875 39.808594 47.074219 39.683594 46.945312 39.492188 C 46.558594 38.929688 46.152344 38.6875 45.535156 38.644531 C 44.625 38.582031 44.039062 39.058594 44.042969 39.855469 C 44.042969 40.089844 44.078125 40.226562 44.171875 40.417969 C 44.375 40.832031 44.746094 41.078125 45.910156 41.582031 C 48.058594 42.507812 48.976562 43.117188 49.550781 43.984375 C 50.1875 44.949219 50.332031 46.492188 49.898438 47.640625 C 49.421875 48.886719 48.238281 49.734375 46.578125 50.015625 C 46.0625 50.105469 44.84375 50.09375 44.292969 49.992188 C 43.085938 49.777344 41.945312 49.183594 41.242188 48.402344 C 40.964844 48.097656 40.425781 47.300781 40.460938 47.246094 C 40.472656 47.226562 40.597656 47.148438 40.734375 47.070312 C 40.871094 46.992188 41.375 46.703125 41.851562 46.425781 L 42.710938 45.925781 L 42.894531 46.191406 C 43.144531 46.578125 43.699219 47.105469 44.03125 47.285156 C 44.988281 47.789062 46.300781 47.714844 46.949219 47.136719 C 47.226562 46.882812 47.339844 46.621094 47.339844 46.234375 C 47.339844 45.886719 47.296875 45.734375 47.117188 45.472656 C 46.882812 45.140625 46.40625 44.859375 45.054688 44.273438 C 43.507812 43.609375 42.839844 43.191406 42.230469 42.535156 C 41.878906 42.15625 41.546875 41.546875 41.40625 41.035156 C 41.292969 40.613281 41.265625 39.550781 41.355469 39.121094 C 41.675781 37.625 42.804688 36.582031 44.429688 36.273438 C 44.960938 36.175781 46.1875 36.210938 46.707031 36.339844 Z M 46.707031 36.339844 " fill-opacity="1" fill-rule="nonzero"/></svg>