<svg width="33" height="30" viewBox="0 0 33 30" fill="none" xmlns="http://www.w3.org/2000/svg">
<path d="M30.0666 16.5675C28.9608 16.8375 27.8214 16.9741 26.6772 16.974C23.1931 16.974 19.9212 15.729 17.4636 13.47C15.8497 11.978 14.6895 10.1233 14.0985 8.09071C13.5075 6.05811 13.5065 3.91863 14.0954 1.88552C14.1689 1.63132 14.1685 1.36381 14.094 1.10983C14.0196 0.855843 13.8738 0.624317 13.6713 0.438474C13.4688 0.25263 13.2167 0.119003 12.9402 0.0509983C12.6638 -0.0170068 12.3728 -0.0169993 12.0963 0.0510201C9.32729 0.729295 6.80097 2.06496 4.77081 3.92402C-1.59027 9.77102 -1.59027 19.2885 4.77081 25.1385C6.2828 26.5361 8.08131 27.6441 10.0623 28.3985C12.0432 29.1529 14.1673 29.5387 16.3115 29.5335C18.4551 29.539 20.5787 29.1536 22.5591 28.3994C24.5396 27.6452 26.3375 26.5374 27.8489 25.14C29.8729 23.2736 31.3267 20.9502 32.0641 18.4035C32.1373 18.1494 32.1367 17.8821 32.0623 17.6283C31.9879 17.3745 31.8423 17.1431 31.6401 16.9572C31.4379 16.7713 31.1861 16.6375 30.91 16.5691C30.6339 16.5007 30.3431 16.5002 30.0666 16.5675V16.5675ZM25.543 23.019C24.3338 24.1367 22.8954 25.0228 21.311 25.626C19.7267 26.2293 18.028 26.5377 16.3131 26.5335C14.5977 26.5374 12.8984 26.2287 11.3136 25.6252C9.72872 25.0217 8.28977 24.1354 7.07992 23.0175C1.99171 18.339 1.99171 10.725 7.07992 6.04652C8.06314 5.14378 9.19827 4.39264 10.4416 3.82202C10.2596 5.98061 10.5868 8.14987 11.4007 10.1816C12.2146 12.2132 13.4962 14.0594 15.1577 15.594C16.8236 17.1261 18.8315 18.3073 21.0428 19.056C23.254 19.8048 25.6158 20.1031 27.9648 19.9305C27.3406 21.0714 26.5232 22.1139 25.543 23.019V23.019Z" fill="#9C9C9C"/>
</svg>
