<?xml version="1.0" encoding="UTF-8"?><svg xmlns="http://www.w3.org/2000/svg" xmlns:xlink="http://www.w3.org/1999/xlink" width="810" zoomAndPan="magnify" viewBox="0 0 810 809.999993" height="809.999993" preserveAspectRatio="xMidYMid meet" version="1.0"><defs><clipPath id="clip-0"><path d="M 142.074219 142.074219 L 667.824219 142.074219 L 667.824219 667.824219 L 142.074219 667.824219 Z M 142.074219 142.074219 " clip-rule="nonzero"/></clipPath><clipPath id="clip-1"><path d="M 463 142.074219 L 667.824219 142.074219 L 667.824219 347 L 463 347 Z M 463 142.074219 " clip-rule="nonzero"/></clipPath></defs><g clip-path="url(#clip-0)"><path fill="rgb(0%, 0%, 0%)" d="M 609.410156 667.824219 L 200.492188 667.824219 C 168.363281 667.824219 142.074219 641.539062 142.074219 609.410156 L 142.074219 200.492188 C 142.074219 168.363281 168.363281 142.074219 200.492188 142.074219 L 404.949219 142.074219 L 404.949219 200.492188 L 200.492188 200.492188 L 200.492188 609.410156 L 609.410156 609.410156 L 609.410156 404.949219 L 667.824219 404.949219 L 667.824219 609.410156 C 667.824219 641.539062 641.539062 667.824219 609.410156 667.824219 Z M 609.410156 667.824219 " fill-opacity="1" fill-rule="nonzero"/></g><g clip-path="url(#clip-1)"><path fill="rgb(0%, 0%, 0%)" d="M 667.824219 346.535156 L 609.410156 346.535156 L 609.410156 200.492188 L 463.367188 200.492188 L 463.367188 142.074219 L 667.824219 142.074219 Z M 667.824219 346.535156 " fill-opacity="1" fill-rule="nonzero"/></g><path fill="rgb(0%, 0%, 0%)" d="M 296.222656 472.375 L 618.410156 150.175781 L 659.71875 191.484375 L 337.53125 513.683594 Z M 296.222656 472.375 " fill-opacity="1" fill-rule="nonzero"/></svg>