<?xml version="1.0" encoding="UTF-8"?><svg xmlns="http://www.w3.org/2000/svg" xmlns:xlink="http://www.w3.org/1999/xlink" width="810" zoomAndPan="magnify" viewBox="0 0 810 809.999993" height="809.999993" preserveAspectRatio="xMidYMid meet" version="1.0"><defs><clipPath id="clip-0"><path d="M 142.074219 147 L 667.824219 147 L 667.824219 661 L 142.074219 661 Z M 142.074219 147 " clip-rule="nonzero"/></clipPath></defs><g clip-path="url(#clip-0)"><path fill="rgb(0%, 0%, 0%)" d="M 404.929688 147.550781 C 259.777344 147.550781 142.074219 265.253906 142.074219 410.449219 C 142.074219 526.574219 217.390625 625.109375 321.859375 659.875 C 335.003906 662.285156 339.800781 654.179688 339.800781 647.210938 C 339.800781 640.96875 339.582031 624.429688 339.449219 602.5 C 266.328125 618.382812 250.90625 567.253906 250.90625 567.253906 C 238.945312 536.890625 221.726562 528.808594 221.726562 528.808594 C 197.847656 512.488281 223.523438 512.839844 223.523438 512.839844 C 249.898438 514.699219 263.785156 539.9375 263.785156 539.9375 C 287.226562 580.113281 325.320312 568.503906 340.285156 561.777344 C 342.671875 544.800781 349.460938 533.210938 356.976562 526.640625 C 298.597656 520.003906 237.234375 497.460938 237.234375 396.714844 C 237.234375 368.015625 247.488281 344.554688 264.289062 326.175781 C 261.597656 319.515625 252.570312 292.789062 266.875 256.601562 C 266.875 256.601562 288.957031 249.527344 339.167969 283.546875 C 360.128906 277.71875 382.628906 274.804688 404.972656 274.695312 C 427.296875 274.804688 449.792969 277.71875 470.777344 283.546875 C 520.964844 249.527344 543.003906 256.601562 543.003906 256.601562 C 557.351562 292.789062 548.328125 319.515625 545.609375 326.175781 C 562.457031 344.554688 572.621094 368.015625 572.621094 396.714844 C 572.621094 497.703125 511.152344 519.914062 452.597656 526.421875 C 462.039062 534.527344 470.449219 550.582031 470.449219 575.097656 C 470.449219 610.234375 470.121094 638.582031 470.121094 647.210938 C 470.121094 654.242188 474.851562 662.414062 488.195312 659.851562 C 592.578125 625 667.824219 526.550781 667.824219 410.449219 C 667.824219 265.253906 550.125 147.550781 404.929688 147.550781 Z M 404.929688 147.550781 " fill-opacity="1" fill-rule="evenodd"/></g></svg>