<svg xmlns="http://www.w3.org/2000/svg" xmlns:xlink="http://www.w3.org/1999/xlink" width="1080" zoomAndPan="magnify" viewBox="0 0 810 809.999993" height="1080" preserveAspectRatio="xMidYMid meet" version="1.0"><defs><clipPath id="id1"><path d="M 287 474 L 523 474 L 523 567 L 287 567 Z M 287 474 " clip-rule="nonzero"/></clipPath><clipPath id="id2"><path d="M 290 243 L 522 243 L 522 334 L 290 334 Z M 290 243 " clip-rule="nonzero"/></clipPath></defs><g clip-path="url(#id1)"><path fill="rgb(70.199585%, 49.409485%, 79.60968%)" d="M 522.679688 520.710938 C 522.679688 546.296875 469.921875 567.039062 404.839844 567.039062 C 339.757812 567.039062 287 546.296875 287 520.710938 C 287 495.125 339.757812 474.382812 404.839844 474.382812 C 469.921875 474.382812 522.679688 495.125 522.679688 520.710938 Z M 522.679688 520.710938 " fill-opacity="1" fill-rule="nonzero"/></g><path fill="rgb(38.42926%, 3.138733%, 52.549744%)" d="M 287.257812 444.09375 L 287.257812 444.59375 C 287.269531 444.429688 287.292969 444.257812 287.308594 444.09375 Z M 522.808594 444.09375 C 522.859375 444.65625 522.910156 445.230469 522.910156 445.796875 L 522.910156 444.09375 Z M 522.910156 445.796875 C 522.910156 471.367188 470.105469 492.113281 405.054688 492.113281 C 341.023438 492.113281 288.867188 472.019531 287.253906 446.996094 L 287.253906 516.113281 C 287.226562 516.507812 287.230469 516.890625 287.230469 517.289062 C 287.230469 517.671875 287.230469 518.058594 287.253906 518.441406 C 288.800781 543.484375 340.980469 563.632812 405.054688 563.632812 C 469.132812 563.632812 521.3125 543.484375 522.859375 518.441406 L 522.910156 518.441406 L 522.910156 517.589844 C 522.910156 517.488281 522.910156 517.386719 522.910156 517.289062 C 522.910156 517.1875 522.910156 517.085938 522.910156 516.988281 Z M 522.910156 445.796875 " fill-opacity="1" fill-rule="nonzero"/><path fill="rgb(70.199585%, 49.409485%, 79.60968%)" d="M 522.953125 446.074219 C 522.953125 471.660156 470.191406 492.402344 405.113281 492.402344 C 340.027344 492.402344 287.269531 471.660156 287.269531 446.074219 C 287.269531 420.488281 340.03125 399.746094 405.113281 399.746094 C 470.195312 399.746094 522.953125 420.488281 522.953125 446.074219 Z M 522.953125 446.074219 " fill-opacity="1" fill-rule="nonzero"/><path fill="rgb(70.199585%, 49.409485%, 79.60968%)" d="M 521.433594 442.878906 C 521.433594 468.003906 469.625 488.371094 405.71875 488.371094 C 341.808594 488.371094 290.003906 468.003906 290.003906 442.878906 C 290.003906 417.75 341.8125 397.382812 405.71875 397.382812 C 469.628906 397.382812 521.433594 417.75 521.433594 442.878906 Z M 521.433594 442.878906 " fill-opacity="1" fill-rule="nonzero"/><path fill="rgb(70.199585%, 49.409485%, 79.60968%)" d="M 522.679688 443.507812 C 522.679688 469.09375 469.921875 489.835938 404.839844 489.835938 C 339.757812 489.835938 287 469.09375 287 443.507812 C 287 417.921875 339.757812 397.179688 404.839844 397.179688 C 469.921875 397.179688 522.679688 417.921875 522.679688 443.507812 Z M 522.679688 443.507812 " fill-opacity="1" fill-rule="nonzero"/><path fill="rgb(38.42926%, 3.138733%, 52.549744%)" d="M 287.257812 366.890625 L 287.257812 367.390625 C 287.269531 367.226562 287.292969 367.058594 287.308594 366.890625 Z M 522.808594 366.890625 C 522.859375 367.453125 522.910156 368.027344 522.910156 368.59375 L 522.910156 366.890625 Z M 522.910156 368.59375 C 522.910156 394.167969 470.105469 414.910156 405.054688 414.910156 C 341.023438 414.910156 288.867188 394.816406 287.253906 369.792969 L 287.253906 438.910156 C 287.226562 439.308594 287.230469 439.6875 287.230469 440.085938 C 287.230469 440.46875 287.230469 440.855469 287.253906 441.238281 C 288.800781 466.28125 340.980469 486.429688 405.054688 486.429688 C 469.132812 486.429688 521.3125 466.28125 522.859375 441.238281 L 522.910156 441.238281 L 522.910156 440.386719 C 522.910156 440.285156 522.910156 440.1875 522.910156 440.085938 C 522.910156 439.984375 522.910156 439.886719 522.910156 439.785156 Z M 522.910156 368.59375 " fill-opacity="1" fill-rule="nonzero"/><path fill="rgb(70.199585%, 49.409485%, 79.60968%)" d="M 522.953125 368.871094 C 522.953125 394.457031 470.191406 415.199219 405.113281 415.199219 C 340.027344 415.199219 287.269531 394.457031 287.269531 368.871094 C 287.269531 343.285156 340.03125 322.542969 405.113281 322.542969 C 470.195312 322.542969 522.953125 343.285156 522.953125 368.871094 Z M 522.953125 368.871094 " fill-opacity="1" fill-rule="nonzero"/><path fill="rgb(70.199585%, 49.409485%, 79.60968%)" d="M 521.433594 365.675781 C 521.433594 390.800781 469.625 411.167969 405.71875 411.167969 C 341.808594 411.167969 290.003906 390.800781 290.003906 365.675781 C 290.003906 340.550781 341.8125 320.179688 405.71875 320.179688 C 469.628906 320.179688 521.433594 340.550781 521.433594 365.675781 Z M 521.433594 365.675781 " fill-opacity="1" fill-rule="nonzero"/><path fill="rgb(70.199585%, 49.409485%, 79.60968%)" d="M 522.679688 366.320312 C 522.679688 391.910156 469.921875 412.648438 404.839844 412.648438 C 339.757812 412.648438 287 391.90625 287 366.320312 C 287 340.738281 339.757812 319.992188 404.839844 319.992188 C 469.921875 319.992188 522.679688 340.738281 522.679688 366.320312 Z M 522.679688 366.320312 " fill-opacity="1" fill-rule="nonzero"/><path fill="rgb(38.42926%, 3.138733%, 52.549744%)" d="M 287.257812 289.707031 L 287.257812 290.207031 C 287.269531 290.039062 287.292969 289.871094 287.308594 289.707031 Z M 522.808594 289.707031 C 522.859375 290.265625 522.910156 290.839844 522.910156 291.40625 L 522.910156 289.707031 Z M 522.910156 291.40625 C 522.910156 316.980469 470.105469 337.726562 405.054688 337.726562 C 341.023438 337.726562 288.867188 317.628906 287.253906 292.609375 L 287.253906 361.722656 C 287.226562 362.121094 287.230469 362.5 287.230469 362.898438 C 287.230469 363.28125 287.230469 363.671875 287.253906 364.050781 C 288.800781 389.097656 340.980469 409.242188 405.054688 409.242188 C 469.132812 409.242188 521.3125 389.097656 522.859375 364.050781 L 522.910156 364.050781 L 522.910156 363.199219 C 522.910156 363.101562 522.910156 363 522.910156 362.898438 C 522.910156 362.800781 522.910156 362.699219 522.910156 362.601562 Z M 522.910156 291.40625 " fill-opacity="1" fill-rule="nonzero"/><path fill="rgb(70.199585%, 49.409485%, 79.60968%)" d="M 522.953125 291.683594 C 522.953125 317.273438 470.191406 338.011719 405.113281 338.011719 C 340.027344 338.011719 287.269531 317.269531 287.269531 291.683594 C 287.269531 266.101562 340.03125 245.355469 405.113281 245.355469 C 470.195312 245.355469 522.953125 266.101562 522.953125 291.683594 Z M 522.953125 291.683594 " fill-opacity="1" fill-rule="nonzero"/><g clip-path="url(#id2)"><path fill="rgb(70.199585%, 49.409485%, 79.60968%)" d="M 521.433594 288.488281 C 521.433594 313.617188 469.625 333.984375 405.71875 333.984375 C 341.808594 333.984375 290.003906 313.613281 290.003906 288.488281 C 290.003906 263.363281 341.8125 242.992188 405.71875 242.992188 C 469.628906 242.992188 521.433594 263.363281 521.433594 288.488281 Z M 521.433594 288.488281 " fill-opacity="1" fill-rule="nonzero"/></g></svg>