<svg xmlns="http://www.w3.org/2000/svg" xmlns:xlink="http://www.w3.org/1999/xlink" width="1080" zoomAndPan="magnify" viewBox="0 0 810 809.999993" height="1080" preserveAspectRatio="xMidYMid meet" version="1.0"><defs><clipPath id="id1"><path d="M 229.820312 229.820312 L 580.070312 229.820312 L 580.070312 580.070312 L 229.820312 580.070312 Z M 229.820312 229.820312 " clip-rule="nonzero"/></clipPath></defs><g clip-path="url(#id1)"><path fill="rgb(38.42926%, 3.138733%, 52.549744%)" d="M 229.820312 534.90625 C 229.820312 559.847656 250.039062 580.070312 274.980469 580.070312 L 534.90625 580.070312 C 559.847656 580.070312 580.066406 559.847656 580.066406 534.90625 L 580.066406 274.984375 C 580.066406 250.035156 559.847656 229.820312 534.90625 229.820312 L 274.980469 229.820312 C 250.035156 229.820312 229.816406 250.039062 229.816406 274.980469 L 229.816406 534.90625 Z M 229.820312 534.90625 " fill-opacity="1" fill-rule="nonzero"/></g><path fill="rgb(100%, 100%, 100%)" d="M 375.0625 384.75 L 375.0625 335.148438 L 418.722656 335.148438 C 422.882812 335.148438 426.890625 335.492188 430.75 336.1875 C 434.605469 336.878906 438.027344 338.117188 440.996094 339.898438 C 443.964844 341.683594 446.34375 344.15625 448.125 347.324219 C 449.902344 350.492188 450.792969 354.550781 450.792969 359.503906 C 450.792969 368.414062 448.125 374.84375 442.773438 378.8125 C 437.4375 382.765625 430.597656 384.75 422.277344 384.75 Z M 328.429688 298.910156 L 328.429688 510.976562 L 431.199219 510.976562 C 440.695312 510.976562 449.957031 509.785156 458.960938 507.40625 C 467.976562 505.039062 475.992188 501.371094 483.027344 496.421875 C 490.058594 491.46875 495.640625 485.089844 499.800781 477.265625 C 503.957031 469.441406 506.039062 460.191406 506.039062 449.492188 C 506.039062 436.234375 502.824219 424.890625 496.390625 415.492188 C 489.949219 406.078125 480.207031 399.5 467.128906 395.738281 C 476.636719 391.179688 483.820312 385.339844 488.664062 378.210938 C 493.519531 371.082031 495.941406 362.175781 495.941406 351.480469 C 495.941406 341.582031 494.3125 333.265625 491.042969 326.535156 C 487.773438 319.800781 483.175781 314.40625 477.238281 310.347656 C 471.285156 306.289062 464.160156 303.367188 455.855469 301.585938 C 447.535156 299.800781 438.328125 298.910156 428.230469 298.910156 Z M 375.0625 474.75 L 375.0625 416.53125 L 425.851562 416.53125 C 435.945312 416.53125 444.058594 418.859375 450.203125 423.511719 C 456.347656 428.164062 459.410156 435.933594 459.410156 446.824219 C 459.410156 452.363281 458.46875 456.921875 456.59375 460.492188 C 454.703125 464.050781 452.1875 466.867188 449.011719 468.945312 C 445.851562 471.027344 442.1875 472.519531 438.027344 473.40625 C 433.867188 474.296875 429.515625 474.75 424.960938 474.75 Z M 375.0625 474.75 " fill-opacity="1" fill-rule="nonzero"/></svg>