<svg xmlns="http://www.w3.org/2000/svg" xmlns:xlink="http://www.w3.org/1999/xlink" width="1080" zoomAndPan="magnify" viewBox="0 0 810 809.999993" height="1080" preserveAspectRatio="xMidYMid meet" version="1.0"><path fill="rgb(38.42926%, 3.138733%, 52.549744%)" d="M 595.554688 387.21875 L 422.53125 214.210938 C 412.574219 204.242188 396.414062 204.242188 386.445312 214.207031 L 350.507812 250.140625 L 396.089844 295.71875 C 406.679688 292.136719 418.832031 294.539062 427.265625 302.980469 C 435.75 311.480469 438.132812 323.730469 434.464844 334.355469 L 478.398438 378.289062 C 489.019531 374.617188 501.277344 376.988281 509.777344 385.484375 C 521.636719 397.34375 521.636719 416.570312 509.777344 428.429688 C 497.902344 440.300781 478.691406 440.300781 466.820312 428.429688 C 457.886719 419.496094 455.6875 406.398438 460.210938 395.410156 L 419.25 354.441406 L 419.234375 462.238281 C 422.128906 463.675781 424.851562 465.582031 427.265625 467.980469 C 439.125 479.839844 439.125 499.066406 427.265625 510.9375 C 415.410156 522.796875 396.167969 522.796875 384.324219 510.9375 C 372.464844 499.066406 372.464844 479.839844 384.324219 467.980469 C 387.25 465.054688 390.640625 462.839844 394.261719 461.355469 L 394.261719 352.554688 C 390.640625 351.074219 387.265625 348.875 384.324219 345.925781 C 375.332031 336.949219 373.179688 323.761719 377.777344 312.726562 L 332.855469 267.792969 L 214.210938 386.429688 C 204.242188 396.398438 204.242188 412.5625 214.214844 422.53125 L 387.238281 595.554688 C 397.207031 605.507812 413.367188 605.507812 423.335938 595.554688 L 595.554688 423.335938 C 605.523438 413.367188 605.523438 397.1875 595.554688 387.21875 " fill-opacity="1" fill-rule="nonzero"/></svg>