<svg xmlns="http://www.w3.org/2000/svg" xmlns:xlink="http://www.w3.org/1999/xlink" width="1080" zoomAndPan="magnify" viewBox="0 0 810 809.999993" height="1080" preserveAspectRatio="xMidYMid meet" version="1.0"><defs><clipPath id="id1"><path d="M 204.257812 204.257812 L 605.507812 204.257812 L 605.507812 605.507812 L 204.257812 605.507812 Z M 204.257812 204.257812 " clip-rule="nonzero"/></clipPath></defs><g clip-path="url(#id1)"><path fill="rgb(38.42926%, 3.138733%, 52.549744%)" d="M 204.257812 605.507812 L 605.507812 605.507812 L 605.507812 204.257812 L 204.257812 204.257812 Z M 204.257812 605.507812 " fill-opacity="1" fill-rule="nonzero"/></g><path fill="rgb(100%, 100%, 100%)" d="M 292.972656 406.199219 L 292.847656 422.640625 L 345.070312 422.640625 L 345.070312 571.039062 L 382.011719 571.039062 L 382.011719 422.640625 L 434.238281 422.640625 L 434.238281 406.527344 C 434.238281 397.609375 434.046875 390.148438 433.792969 389.960938 C 433.601562 389.710938 401.820312 389.585938 363.285156 389.648438 L 293.160156 389.835938 Z M 292.972656 406.199219 " fill-opacity="1" fill-rule="nonzero"/><path fill="rgb(100%, 100%, 100%)" d="M 528.03125 389.382812 C 538.21875 391.921875 545.992188 396.449219 553.125 403.832031 C 556.808594 407.78125 562.292969 414.976562 562.734375 416.699219 C 562.859375 417.21875 545.414062 428.925781 534.835938 435.492188 C 534.457031 435.746094 532.9375 434.082031 531.214844 431.542969 C 526.058594 424.019531 520.632812 420.777344 512.359375 420.210938 C 500.195312 419.378906 492.359375 425.746094 492.421875 436.386719 C 492.421875 439.507812 492.875 441.355469 494.144531 443.894531 C 496.824219 449.441406 501.792969 452.75 517.390625 459.503906 C 546.121094 471.855469 558.40625 480.007812 566.054688 491.605469 C 574.582031 504.535156 576.496094 525.164062 570.695312 540.507812 C 564.332031 557.199219 548.53125 568.53125 526.308594 572.292969 C 519.425781 573.5 503.125 573.3125 495.726562 571.980469 C 479.617188 569.113281 464.332031 561.152344 454.914062 550.710938 C 451.214844 546.636719 444.019531 535.992188 444.457031 535.226562 C 444.664062 534.976562 446.308594 533.957031 448.15625 532.875 C 449.945312 531.855469 456.699219 527.96875 463.0625 524.269531 L 474.582031 517.59375 L 477.011719 521.152344 C 480.382812 526.308594 487.78125 533.375 492.234375 535.742188 C 505.039062 542.484375 522.609375 541.527344 531.277344 533.769531 C 534.976562 530.382812 536.496094 526.886719 536.496094 521.730469 C 536.496094 517.074219 535.929688 515.039062 533.5 511.542969 C 530.382812 507.074219 524.019531 503.3125 505.933594 495.492188 C 485.226562 486.574219 476.308594 481.027344 468.15625 472.234375 C 463.441406 467.140625 458.988281 458.988281 457.140625 452.171875 C 455.601562 446.511719 455.226562 432.3125 456.433594 426.574219 C 460.710938 406.574219 475.804688 392.625 497.578125 388.488281 C 504.644531 387.15625 521.089844 387.65625 528.03125 389.382812 Z M 528.03125 389.382812 " fill-opacity="1" fill-rule="nonzero"/></svg>