<?xml version="1.0" encoding="UTF-8"?><svg xmlns="http://www.w3.org/2000/svg" xmlns:xlink="http://www.w3.org/1999/xlink" contentScriptType="text/ecmascript" width="810" zoomAndPan="magnify" contentStyleType="text/css" viewBox="0 0 810 809.999993" height="809.999993" preserveAspectRatio="xMidYMid meet" version="1.0"><defs><clipPath id="clip-0"><path d="M 180.183594 148.46875 L 639.183594 148.46875 L 639.183594 661.46875 L 180.183594 661.46875 Z M 180.183594 148.46875 " clip-rule="nonzero"/></clipPath></defs><g clip-path="url(#clip-0)"><path fill="rgb(38.42926%, 3.138733%, 52.549744%)" d="M 639.117188 148.46875 L 180.253906 148.46875 L 220.742188 607.46875 L 409.683594 661.46875 L 598.628906 607.46875 Z M 639.117188 148.46875 " fill-opacity="1" fill-rule="nonzero"/></g><path fill="rgb(38.42926%, 3.138733%, 52.549744%)" d="M 409.683594 188.96875 L 409.683594 619.617188 L 560.839844 576.417969 L 594.582031 188.96875 Z M 409.683594 188.96875 " fill-opacity="1" fill-rule="nonzero"/><path fill="rgb(100%, 100%, 100%)" d="M 532.5 256.46875 L 409.683594 256.46875 L 409.683594 310.46875 L 475.816406 310.46875 L 471.765625 364.46875 L 409.683594 364.46875 L 409.683594 418.46875 L 469.066406 418.46875 L 465.019531 479.21875 L 409.683594 498.117188 L 409.683594 554.820312 L 516.304688 519.71875 L 525.75 364.46875 Z M 532.5 256.46875 " fill-opacity="1" fill-rule="nonzero"/><path fill="rgb(100%, 100%, 100%)" d="M 409.683594 256.46875 L 409.683594 310.46875 L 289.570312 310.46875 L 285.523438 256.46875 Z M 347.605469 364.46875 L 350.304688 418.46875 L 409.683594 418.46875 L 409.683594 364.46875 Z M 353.003906 445.46875 L 299.019531 445.46875 L 303.066406 519.71875 L 409.683594 554.820312 L 409.683594 498.117188 L 354.351562 479.21875 Z M 353.003906 445.46875 " fill-opacity="1" fill-rule="nonzero"/></svg>