<?xml version="1.0" encoding="UTF-8"?><svg xmlns="http://www.w3.org/2000/svg" xmlns:xlink="http://www.w3.org/1999/xlink" contentScriptType="text/ecmascript" width="810" zoomAndPan="magnify" contentStyleType="text/css" viewBox="0 0 810 809.999993" height="809.999993" preserveAspectRatio="xMidYMid meet" version="1.0"><defs><clipPath id="clip-0"><path d="M 180.183594 149 L 630.183594 149 L 630.183594 661 L 180.183594 661 Z M 180.183594 149 " clip-rule="nonzero"/></clipPath></defs><g clip-path="url(#clip-0)"><path fill="rgb(38.42926%, 3.138733%, 52.549744%)" d="M 221.035156 609.0625 L 180.058594 149.90625 L 630.3125 149.90625 L 589.300781 609 L 404.898438 660.046875 Z M 221.035156 609.0625 " fill-opacity="1" fill-rule="nonzero"/></g><path fill="rgb(38.42926%, 3.138733%, 52.549744%)" d="M 554.179688 579.761719 L 589.238281 187.453125 L 405.183594 187.453125 L 405.183594 621.035156 Z M 554.179688 579.761719 " fill-opacity="1" fill-rule="nonzero"/><path fill="rgb(100%, 100%, 100%)" d="M 404.992188 243.761719 L 263.835938 243.761719 L 279.042969 414.054688 L 405.183594 414.054688 L 405.183594 357.746094 L 330.601562 357.746094 L 325.445312 300.085938 L 405.183594 300.085938 L 405.183594 243.761719 Z M 405.183594 503.8125 L 404.945312 503.875 L 342.167969 486.945312 L 338.179688 442.035156 L 281.5625 442.035156 L 289.460938 530.449219 L 404.929688 562.335938 L 405.183594 562.253906 Z M 405.183594 503.8125 " fill-opacity="1" fill-rule="nonzero"/><path fill="rgb(100%, 100%, 100%)" d="M 404.992188 414.054688 L 474.410156 414.054688 L 468.027344 487.070312 L 405.152344 504.019531 L 405.152344 562.605469 L 520.71875 530.609375 L 536.195312 357.714844 L 405.183594 357.714844 Z M 544.84375 258.875 L 546.183594 243.761719 L 404.960938 243.761719 L 404.960938 300.066406 L 541.109375 300.066406 L 542.226562 287.410156 Z M 544.84375 258.875 " fill-opacity="1" fill-rule="nonzero"/></svg>