<svg xmlns="http://www.w3.org/2000/svg" xmlns:xlink="http://www.w3.org/1999/xlink" width="1080" zoomAndPan="magnify" viewBox="0 0 810 809.999993" height="1080" preserveAspectRatio="xMidYMid meet" version="1.0"><path fill="rgb(38.42926%, 3.138733%, 52.549744%)" d="M 589.007812 436.179688 C 571.269531 436.285156 555.910156 440.535156 543.03125 446.867188 C 538.273438 437.464844 533.515625 429.253906 532.722656 423.117188 C 531.828125 415.992188 530.742188 411.640625 531.828125 403.128906 C 532.914062 394.617188 537.878906 382.546875 537.878906 381.554688 C 537.78125 380.660156 536.78125 376.308594 526.582031 376.210938 C 516.378906 376.117188 507.554688 378.191406 506.5625 380.867188 C 504.789062 385.816406 503.371094 390.863281 502.296875 396.011719 C 500.515625 405.3125 481.886719 438.269531 471.277344 455.59375 C 467.804688 448.863281 464.832031 442.925781 464.238281 438.175781 C 463.34375 431.050781 462.257812 426.695312 463.34375 418.1875 C 464.429688 409.675781 469.390625 397.601562 469.390625 396.613281 C 469.296875 395.71875 468.296875 391.363281 458.09375 391.269531 C 447.890625 391.175781 439.066406 393.25 438.078125 395.925781 C 437.085938 398.601562 435.992188 404.933594 433.8125 411.070312 C 431.726562 417.203125 406.953125 472.234375 400.515625 486.578125 C 397.242188 493.902344 394.371094 499.742188 392.289062 503.703125 C 390.203125 507.660156 392.191406 504.003906 391.996094 504.398438 L 389.21875 509.648438 L 389.21875 509.742188 C 387.832031 512.21875 386.34375 514.59375 385.652344 514.59375 C 385.160156 514.59375 384.164062 507.960938 385.851562 498.855469 C 389.519531 479.753906 398.441406 449.964844 398.335938 448.878906 C 398.335938 448.386719 400.023438 443.140625 392.589844 440.464844 C 385.351562 437.789062 382.773438 442.246094 382.179688 442.246094 C 381.585938 442.246094 381.085938 443.828125 381.085938 443.828125 C 381.085938 443.828125 389.117188 410.277344 365.722656 410.277344 C 351.058594 410.277344 330.839844 426.214844 320.828125 440.757812 L 270.285156 468.371094 L 269.1875 467.183594 C 240.863281 436.972656 188.4375 415.597656 190.621094 375.023438 C 191.414062 360.277344 196.566406 321.382812 291.300781 274.277344 C 368.894531 235.683594 431.039062 246.265625 441.84375 269.820312 C 457.207031 303.464844 408.640625 366.007812 327.972656 375.03125 C 297.253906 378.5 281.097656 366.617188 277.03125 362.167969 C 272.765625 357.511719 272.171875 357.316406 270.585938 358.210938 C 268.007812 359.59375 269.59375 363.75 270.585938 366.230469 C 272.960938 372.46875 282.871094 383.550781 299.71875 389.09375 C 314.488281 393.945312 350.558594 396.613281 394.167969 379.789062 C 443.023438 360.886719 481.179688 308.4375 469.976562 264.601562 C 458.578125 219.96875 384.457031 205.324219 314.382812 230.164062 C 272.667969 244.992188 227.5625 268.140625 195.058594 298.527344 C 156.332031 334.546875 150.1875 366.023438 152.757812 379.085938 C 161.777344 425.699219 226.085938 456.082031 251.851562 478.550781 L 248.285156 480.53125 C 235.402344 486.863281 186.347656 512.496094 174.058594 539.613281 C 160.1875 570.289062 176.238281 592.359375 186.941406 595.328125 C 220.039062 604.535156 253.929688 588.007812 272.265625 560.789062 C 290.5 533.570312 288.316406 498.246094 279.898438 482.113281 L 279.597656 481.519531 L 289.707031 475.582031 C 296.246094 471.71875 302.691406 468.15625 308.335938 465.09375 C 305.164062 473.707031 302.882812 483.894531 301.691406 498.738281 C 300.304688 516.15625 307.441406 538.71875 316.859375 547.632812 C 321.019531 551.496094 325.972656 551.589844 329.050781 551.589844 C 339.949219 551.589844 344.90625 542.582031 350.359375 531.796875 C 357.097656 518.632812 363.042969 503.394531 363.042969 503.394531 C 363.042969 503.394531 355.605469 544.664062 375.925781 544.664062 C 383.363281 544.664062 390.789062 535.058594 394.160156 530.113281 L 394.160156 530.207031 C 394.160156 530.207031 394.355469 529.90625 394.753906 529.21875 C 395.546875 528.03125 395.941406 527.332031 395.941406 527.332031 L 395.941406 527.136719 C 398.914062 521.988281 405.558594 510.210938 415.46875 490.71875 C 428.253906 465.582031 440.542969 434.113281 440.542969 434.113281 C 440.542969 434.113281 441.730469 441.832031 445.402344 454.5 C 447.582031 462.019531 452.339844 470.238281 456.007812 478.25 L 451.253906 484.78125 L 451.347656 484.882812 C 448.8125 488.242188 446.199219 491.539062 443.515625 494.78125 C 433.40625 506.851562 421.320312 520.613281 419.734375 524.570312 C 417.847656 529.226562 418.242188 532.683594 421.914062 535.457031 C 424.59375 537.433594 429.347656 537.832031 434.398438 537.433594 C 443.515625 536.839844 449.859375 534.5625 453.027344 533.175781 C 458.777344 531.128906 464.128906 528.324219 469.082031 524.761719 C 478.992188 517.4375 485.039062 507.042969 484.445312 493.1875 C 484.144531 485.566406 481.671875 478.042969 478.59375 470.917969 L 481.273438 466.960938 C 496.929688 444.097656 509.019531 418.960938 509.019531 418.960938 C 509.019531 418.960938 510.210938 426.679688 513.878906 439.347656 C 515.765625 445.785156 519.53125 452.804688 522.902344 459.734375 C 508.234375 471.710938 499.015625 485.566406 495.84375 494.667969 C 489.996094 511.492188 494.554688 519.117188 503.179688 520.898438 C 507.046875 521.6875 512.597656 519.90625 516.757812 518.125 C 521.910156 516.441406 528.15625 513.574219 533.90625 509.316406 C 543.816406 501.992188 553.328125 491.796875 552.835938 478.042969 C 552.535156 471.710938 550.855469 465.472656 548.570312 459.535156 C 561.058594 454.390625 577.214844 451.421875 597.722656 453.890625 C 641.824219 459.035156 650.542969 486.546875 648.855469 498.027344 C 647.164062 509.503906 637.953125 515.839844 634.878906 517.816406 C 631.800781 519.703125 630.8125 520.390625 631.113281 521.777344 C 631.507812 523.859375 632.894531 523.753906 635.574219 523.359375 C 639.246094 522.765625 658.765625 513.953125 659.558594 492.777344 C 660.746094 465.558594 634.878906 435.871094 589 436.171875 Z M 248.886719 550.695312 C 234.316406 566.632812 213.808594 572.664062 205.085938 567.519531 C 195.667969 562.070312 199.339844 538.621094 217.28125 521.695312 C 228.179688 511.40625 242.355469 501.90625 251.667969 496.0625 L 260.691406 490.617188 C 261.285156 490.21875 261.683594 490.023438 261.683594 490.023438 C 262.378906 489.625 263.171875 489.128906 263.964844 488.636719 C 270.609375 512.78125 264.265625 533.960938 248.902344 550.6875 Z M 355.433594 478.351562 C 350.375 490.726562 339.671875 522.488281 333.234375 520.707031 C 327.6875 519.21875 324.316406 495.175781 332.140625 471.417969 C 336.105469 459.441406 344.53125 445.191406 349.488281 439.648438 C 357.519531 430.742188 366.238281 427.773438 368.417969 431.429688 C 370.996094 436.179688 358.605469 470.617188 355.433594 478.34375 Z M 443.332031 520.3125 C 441.152344 521.402344 439.171875 522.195312 438.277344 521.601562 C 437.578125 521.207031 439.171875 519.71875 439.171875 519.71875 C 439.171875 519.71875 450.175781 507.9375 454.535156 502.5 L 463.160156 491.511719 L 463.160156 492.699219 C 463.160156 506.949219 449.484375 516.449219 443.339844 520.3125 Z M 511.113281 504.875 C 509.527344 503.6875 509.726562 500.019531 515.078125 488.542969 C 517.164062 483.988281 521.917969 476.367188 530.140625 469.144531 C 531.128906 472.113281 531.726562 474.988281 531.628906 477.65625 C 531.527344 495.46875 518.84375 502.101562 511.113281 504.875 Z M 511.113281 504.875 " fill-opacity="1" fill-rule="nonzero"/></svg>