<?xml version="1.0" encoding="UTF-8"?><svg xmlns="http://www.w3.org/2000/svg" xmlns:xlink="http://www.w3.org/1999/xlink" contentScriptType="text/ecmascript" width="810" zoomAndPan="magnify" contentStyleType="text/css" viewBox="0 0 810 809.999993" height="809.999993" preserveAspectRatio="xMidYMid meet" version="1.0"><defs><clipPath id="clip-0"><path d="M 177.039062 177.039062 L 633.039062 177.039062 L 633.039062 633.039062 L 177.039062 633.039062 Z M 177.039062 177.039062 " clip-rule="nonzero"/></clipPath></defs><g clip-path="url(#clip-0)"><path fill="rgb(38.42926%, 3.138733%, 52.549744%)" d="M 177.039062 177.039062 L 633.039062 177.039062 L 633.039062 633.039062 L 177.039062 633.039062 Z M 177.039062 177.039062 " fill-opacity="1" fill-rule="nonzero"/></g><path fill="rgb(100%, 100%, 100%)" d="M 296.9375 558.101562 L 331.835938 536.992188 C 338.566406 548.929688 344.691406 559.027344 359.386719 559.027344 C 373.457031 559.027344 382.347656 553.507812 382.347656 532.09375 L 382.347656 386.390625 L 425.183594 386.390625 L 425.183594 532.703125 C 425.183594 577.070312 399.179688 597.289062 361.21875 597.289062 C 326.9375 597.289062 307.039062 579.53125 296.9375 558.101562 " fill-opacity="1" fill-rule="nonzero"/><path fill="rgb(100%, 100%, 100%)" d="M 448.464844 553.507812 L 483.359375 533.308594 C 492.550781 548.304688 504.484375 559.332031 525.59375 559.332031 C 543.351562 559.332031 554.683594 550.460938 554.683594 538.207031 C 554.683594 523.511719 543.050781 518.308594 523.457031 509.742188 L 512.75 505.144531 C 481.828125 491.980469 461.328125 475.46875 461.328125 440.558594 C 461.328125 408.421875 485.800781 383.929688 524.078125 383.929688 C 551.316406 383.929688 570.910156 393.425781 584.980469 418.21875 L 551.617188 439.648438 C 544.28125 426.484375 536.316406 421.285156 524.078125 421.285156 C 511.523438 421.285156 503.558594 429.246094 503.558594 439.648438 C 503.558594 452.507812 511.523438 457.710938 529.886719 465.671875 L 540.59375 470.25 C 577.019531 485.871094 597.539062 501.777344 597.539062 537.601562 C 597.539062 576.164062 567.238281 597.289062 526.519531 597.289062 C 486.726562 597.289062 461.023438 578.300781 448.464844 553.507812 " fill-opacity="1" fill-rule="nonzero"/></svg>